<svg width="109" height="169" viewBox="0 0 109 169" fill="none" xmlns="http://www.w3.org/2000/svg">
<mask id="path-1-inside-1_523_2" fill="white">
<path fill-rule="evenodd" clip-rule="evenodd" d="M109 0H0V169H109V0ZM26.735 10.3772H13.1289V158.252H26.735V100.542L71.5387 144.809H26.7353V158.252H81.1593H81.1598H94.7655V10.3772H81.1598V10.3771H26.7353V23.8203H71.6524L26.735 68.1998V10.3772ZM81.1593 135.303V91.0364H36.3562L81.1593 135.303ZM26.7828 91.0364H26.7353V77.7401L26.735 77.7399V91.0836L26.7828 91.0364ZM81.1593 77.5932H36.4697L81.1593 33.4388V77.5932ZM81.1593 23.8203V23.8969L81.0818 23.8203H81.1593Z"/>
</mask>
<path fill-rule="evenodd" clip-rule="evenodd" d="M109 0H0V169H109V0ZM26.735 10.3772H13.1289V158.252H26.735V100.542L71.5387 144.809H26.7353V158.252H81.1593H81.1598H94.7655V10.3772H81.1598V10.3771H26.7353V23.8203H71.6524L26.735 68.1998V10.3772ZM81.1593 135.303V91.0364H36.3562L81.1593 135.303ZM26.7828 91.0364H26.7353V77.7401L26.735 77.7399V91.0836L26.7828 91.0364ZM81.1593 77.5932H36.4697L81.1593 33.4388V77.5932ZM81.1593 23.8203V23.8969L81.0818 23.8203H81.1593Z" fill="black"/>
<path d="M0 0V-1H-1V0H0ZM109 0H110V-1H109V0ZM0 169H-1V170H0V169ZM109 169V170H110V169H109ZM13.1289 10.3772V9.3772H12.1289V10.3772H13.1289ZM26.735 10.3772H27.735V9.3772H26.735V10.3772ZM13.1289 158.252H12.1289V159.252H13.1289V158.252ZM26.735 158.252V159.252H27.735V158.252H26.735ZM26.735 100.542L27.4379 99.8306L25.735 98.1481V100.542H26.735ZM71.5387 144.809V145.809H73.9736L72.2415 144.098L71.5387 144.809ZM26.7353 144.809V143.809H25.7353V144.809H26.7353ZM26.7353 158.252H25.7353V159.252H26.7353V158.252ZM94.7655 158.252V159.252H95.7655V158.252H94.7655ZM94.7655 10.3772H95.7655V9.3772H94.7655V10.3772ZM81.1598 10.3772H80.1598V11.3772H81.1598V10.3772ZM81.1598 10.3771H82.1598V9.37713H81.1598V10.3771ZM26.7353 10.3771V9.37713H25.7353V10.3771H26.7353ZM26.7353 23.8203H25.7353V24.8203H26.7353V23.8203ZM71.6524 23.8203L72.3553 24.5317L74.0874 22.8203H71.6524V23.8203ZM26.735 68.1998H25.735V70.5936L27.4379 68.9111L26.735 68.1998ZM81.1593 135.303L80.4565 136.014L82.1593 137.697V135.303H81.1593ZM81.1593 91.0364H82.1593V90.0364H81.1593V91.0364ZM36.3562 91.0364V90.0364H33.9213L35.6534 91.7477L36.3562 91.0364ZM26.7828 91.0364L27.4857 91.7477L29.2178 90.0364H26.7828V91.0364ZM26.7353 91.0364H25.7353V92.0364H26.7353V91.0364ZM26.7353 77.7401H27.7353V77.3259L27.4424 77.033L26.7353 77.7401ZM26.735 77.7399L27.4421 77.0328L25.735 75.3257V77.7399H26.735ZM26.735 91.0836H25.735V93.4773L27.4379 91.795L26.735 91.0836ZM36.4697 77.5932L35.7669 76.8818L34.0348 78.5932H36.4697V77.5932ZM81.1593 77.5932V78.5932H82.1593V77.5932H81.1593ZM81.1593 33.4388H82.1593V31.045L80.4565 32.7274L81.1593 33.4388ZM81.1593 23.8969L80.4565 24.6083L82.1593 26.2906V23.8969H81.1593ZM81.1593 23.8203H82.1593V22.8203H81.1593V23.8203ZM81.0818 23.8203V22.8203H78.6468L80.379 24.5317L81.0818 23.8203ZM0 1H109V-1H0V1ZM1 169V0H-1V169H1ZM109 168H0V170H109V168ZM108 0V169H110V0H108ZM13.1289 11.3772H26.735V9.3772H13.1289V11.3772ZM14.1289 158.252V10.3772H12.1289V158.252H14.1289ZM26.735 157.252H13.1289V159.252H26.735V157.252ZM25.735 100.542V158.252H27.735V100.542H25.735ZM72.2415 144.098L27.4379 99.8306L26.0322 101.253L70.8359 145.52L72.2415 144.098ZM26.7353 145.809H71.5387V143.809H26.7353V145.809ZM27.7353 158.252V144.809H25.7353V158.252H27.7353ZM81.1593 157.252H26.7353V159.252H81.1593V157.252ZM81.1598 157.252H81.1593V159.252H81.1598V157.252ZM94.7655 157.252H81.1598V159.252H94.7655V157.252ZM93.7655 10.3772V158.252H95.7655V10.3772H93.7655ZM81.1598 11.3772H94.7655V9.3772H81.1598V11.3772ZM80.1598 10.3771V10.3772H82.1598V10.3771H80.1598ZM26.7353 11.3771H81.1598V9.37713H26.7353V11.3771ZM27.7353 23.8203V10.3771H25.7353V23.8203H27.7353ZM71.6524 22.8203H26.7353V24.8203H71.6524V22.8203ZM27.4379 68.9111L72.3553 24.5317L70.9496 23.109L26.0322 67.4884L27.4379 68.9111ZM25.735 10.3772V68.1998H27.735V10.3772H25.735ZM82.1593 135.303V91.0364H80.1593V135.303H82.1593ZM81.1593 90.0364H36.3562V92.0364H81.1593V90.0364ZM35.6534 91.7477L80.4565 136.014L81.8622 134.592L37.0591 90.325L35.6534 91.7477ZM26.7828 90.0364H26.7353V92.0364H26.7828V90.0364ZM27.7353 91.0364V77.7401H25.7353V91.0364H27.7353ZM27.4424 77.033L27.4421 77.0328L26.0279 78.447L26.0282 78.4472L27.4424 77.033ZM25.735 77.7399V91.0836H27.735V77.7399H25.735ZM27.4379 91.795L27.4857 91.7477L26.08 90.325L26.0322 90.3722L27.4379 91.795ZM36.4697 78.5932H81.1593V76.5932H36.4697V78.5932ZM80.4565 32.7274L35.7669 76.8818L37.1726 78.3046L81.8622 34.1502L80.4565 32.7274ZM82.1593 77.5932V33.4388H80.1593V77.5932H82.1593ZM82.1593 23.8969V23.8203H80.1593V23.8969H82.1593ZM80.379 24.5317L80.4565 24.6083L81.8621 23.1855L81.7846 23.1089L80.379 24.5317ZM81.1593 22.8203H81.0818V24.8203H81.1593V22.8203Z" fill="#CCCCCC" mask="url(#path-1-inside-1_523_2)"/>
</svg>
